<?xml version="1.0" encoding="utf-8"?>
<svg xmlns="http://www.w3.org/2000/svg"
	xmlns:xlink="http://www.w3.org/1999/xlink"
	width="10px" height="10px" viewBox="0 0 10 10">
<path fillRule="evenodd" d="M 8.53 1.46C 6.58-0.49 3.42-0.49 1.46 1.46-0.49 3.42-0.49 6.58 1.46 8.53 3.42 10.49 6.58 10.49 8.53 8.53 10.49 6.58 10.49 3.42 8.53 1.46ZM 6.67 7.5C 6.44 7.5 6.23 7.41 6.08 7.25 6.08 7.25 6.08 7.25 6.08 7.25 6.08 7.25 5 6.18 5 6.18 5 6.18 3.92 7.25 3.92 7.25 3.92 7.25 3.92 7.25 3.92 7.25 3.77 7.41 3.56 7.5 3.33 7.5 2.87 7.5 2.5 7.13 2.5 6.67 2.5 6.44 2.59 6.23 2.74 6.08 2.74 6.08 2.74 6.08 2.74 6.08 2.74 6.08 3.82 5 3.82 5 3.82 5 2.74 3.92 2.74 3.92 2.74 3.92 2.74 3.92 2.74 3.92 2.59 3.77 2.5 3.56 2.5 3.33 2.5 2.87 2.87 2.5 3.33 2.5 3.56 2.5 3.77 2.59 3.92 2.74 3.92 2.74 3.92 2.74 3.92 2.74 3.92 2.74 5 3.82 5 3.82 5 3.82 6.08 2.74 6.08 2.74 6.08 2.74 6.08 2.74 6.08 2.74 6.23 2.59 6.44 2.5 6.67 2.5 7.13 2.5 7.5 2.87 7.5 3.33 7.5 3.56 7.41 3.77 7.26 3.92 7.26 3.92 7.26 3.92 7.26 3.92 7.26 3.92 6.18 5 6.18 5 6.18 5 7.26 6.08 7.26 6.08 7.26 6.08 7.26 6.08 7.26 6.08 7.41 6.23 7.5 6.44 7.5 6.67 7.5 7.13 7.13 7.5 6.67 7.5Z" fill="rgb(255, 0, 0)"/></svg>